<mxfile host="app.diagrams.net" modified="2022-04-28T15:08:08.733Z" agent="5.0 (Windows NT 10.0; Win64; x64) AppleWebKit/537.36 (KHTML, like Gecko) Chrome/98.0.4758.141 YaBrowser/22.3.2.644 Yowser/2.5 Safari/537.36" etag="Fq_osMiwX0N2Y50hXDlZ" version="17.4.6" type="github">
  <diagram id="6a731a19-8d31-9384-78a2-239565b7b9f0" name="Page-1">
    <mxGraphModel dx="1082" dy="673" grid="1" gridSize="10" guides="1" tooltips="1" connect="1" arrows="1" fold="1" page="1" pageScale="1" pageWidth="1169" pageHeight="827" background="none" math="0" shadow="0">
      <root>
        <mxCell id="0" />
        <mxCell id="1" parent="0" />
        <mxCell id="wlD0yPwoiDmn4Mzgq7Xi-59" style="edgeStyle=orthogonalEdgeStyle;rounded=0;orthogonalLoop=1;jettySize=auto;html=1;exitX=0.5;exitY=1;exitDx=0;exitDy=0;" edge="1" parent="1" source="wlD0yPwoiDmn4Mzgq7Xi-55" target="wlD0yPwoiDmn4Mzgq7Xi-56">
          <mxGeometry relative="1" as="geometry" />
        </mxCell>
        <mxCell id="wlD0yPwoiDmn4Mzgq7Xi-55" value="НАЧАЛО" style="rounded=1;whiteSpace=wrap;html=1;" vertex="1" parent="1">
          <mxGeometry x="420" y="30" width="120" height="60" as="geometry" />
        </mxCell>
        <mxCell id="wlD0yPwoiDmn4Mzgq7Xi-60" style="edgeStyle=orthogonalEdgeStyle;rounded=0;orthogonalLoop=1;jettySize=auto;html=1;exitX=0.5;exitY=1;exitDx=0;exitDy=0;entryX=0.5;entryY=0;entryDx=0;entryDy=0;" edge="1" parent="1" source="wlD0yPwoiDmn4Mzgq7Xi-56" target="wlD0yPwoiDmn4Mzgq7Xi-57">
          <mxGeometry relative="1" as="geometry" />
        </mxCell>
        <mxCell id="wlD0yPwoiDmn4Mzgq7Xi-56" value="&lt;div&gt;numbers = [1, 8, 3, 8, 2, 6, 8, 8]&lt;/div&gt;&lt;div&gt;index = 0&lt;/div&gt;&lt;div&gt;maximum = numbers[index]&lt;/div&gt;&lt;div&gt;count_maximal = 0&lt;/div&gt;" style="shape=parallelogram;perimeter=parallelogramPerimeter;whiteSpace=wrap;html=1;fixedSize=1;" vertex="1" parent="1">
          <mxGeometry x="355" y="130" width="250" height="60" as="geometry" />
        </mxCell>
        <mxCell id="wlD0yPwoiDmn4Mzgq7Xi-65" value="ДА" style="edgeStyle=orthogonalEdgeStyle;rounded=0;orthogonalLoop=1;jettySize=auto;html=1;exitX=0.5;exitY=1;exitDx=0;exitDy=0;entryX=0.5;entryY=0;entryDx=0;entryDy=0;" edge="1" parent="1" source="wlD0yPwoiDmn4Mzgq7Xi-57" target="wlD0yPwoiDmn4Mzgq7Xi-58">
          <mxGeometry relative="1" as="geometry" />
        </mxCell>
        <mxCell id="wlD0yPwoiDmn4Mzgq7Xi-81" value="НЕТ" style="edgeStyle=orthogonalEdgeStyle;rounded=0;orthogonalLoop=1;jettySize=auto;html=1;exitX=1;exitY=0.5;exitDx=0;exitDy=0;entryX=0.5;entryY=0;entryDx=0;entryDy=0;fontSize=14;" edge="1" parent="1" source="wlD0yPwoiDmn4Mzgq7Xi-57" target="wlD0yPwoiDmn4Mzgq7Xi-75">
          <mxGeometry x="-0.8596" relative="1" as="geometry">
            <Array as="points">
              <mxPoint x="900" y="270" />
              <mxPoint x="900" y="730" />
              <mxPoint x="480" y="730" />
            </Array>
            <mxPoint as="offset" />
          </mxGeometry>
        </mxCell>
        <mxCell id="wlD0yPwoiDmn4Mzgq7Xi-57" value="index &amp;lt; numbers.length" style="rhombus;whiteSpace=wrap;html=1;" vertex="1" parent="1">
          <mxGeometry x="385" y="230" width="190" height="80" as="geometry" />
        </mxCell>
        <mxCell id="wlD0yPwoiDmn4Mzgq7Xi-66" value="ДА" style="edgeStyle=orthogonalEdgeStyle;rounded=0;orthogonalLoop=1;jettySize=auto;html=1;exitX=0.5;exitY=1;exitDx=0;exitDy=0;entryX=0.5;entryY=0;entryDx=0;entryDy=0;" edge="1" parent="1" source="wlD0yPwoiDmn4Mzgq7Xi-58" target="wlD0yPwoiDmn4Mzgq7Xi-62">
          <mxGeometry relative="1" as="geometry" />
        </mxCell>
        <mxCell id="wlD0yPwoiDmn4Mzgq7Xi-68" value="НЕТ" style="edgeStyle=orthogonalEdgeStyle;rounded=0;orthogonalLoop=1;jettySize=auto;html=1;exitX=1;exitY=0.5;exitDx=0;exitDy=0;entryX=0.5;entryY=0;entryDx=0;entryDy=0;" edge="1" parent="1" source="wlD0yPwoiDmn4Mzgq7Xi-58" target="wlD0yPwoiDmn4Mzgq7Xi-67">
          <mxGeometry relative="1" as="geometry" />
        </mxCell>
        <mxCell id="wlD0yPwoiDmn4Mzgq7Xi-58" value="numbers[index] &amp;gt; maximum" style="rhombus;whiteSpace=wrap;html=1;" vertex="1" parent="1">
          <mxGeometry x="390" y="350" width="180" height="80" as="geometry" />
        </mxCell>
        <mxCell id="wlD0yPwoiDmn4Mzgq7Xi-84" style="edgeStyle=orthogonalEdgeStyle;rounded=0;orthogonalLoop=1;jettySize=auto;html=1;exitX=0.5;exitY=1;exitDx=0;exitDy=0;entryX=0.5;entryY=0;entryDx=0;entryDy=0;fontSize=14;" edge="1" parent="1" source="wlD0yPwoiDmn4Mzgq7Xi-62" target="wlD0yPwoiDmn4Mzgq7Xi-71">
          <mxGeometry relative="1" as="geometry" />
        </mxCell>
        <mxCell id="wlD0yPwoiDmn4Mzgq7Xi-62" value="maximum = numbers[index] &lt;br&gt;count_maximal = 1" style="rounded=0;whiteSpace=wrap;html=1;" vertex="1" parent="1">
          <mxGeometry x="382.5" y="470" width="195" height="60" as="geometry" />
        </mxCell>
        <mxCell id="wlD0yPwoiDmn4Mzgq7Xi-70" value="ДА" style="edgeStyle=orthogonalEdgeStyle;rounded=0;orthogonalLoop=1;jettySize=auto;html=1;exitX=0.5;exitY=1;exitDx=0;exitDy=0;entryX=0.5;entryY=0;entryDx=0;entryDy=0;" edge="1" parent="1" source="wlD0yPwoiDmn4Mzgq7Xi-67" target="wlD0yPwoiDmn4Mzgq7Xi-69">
          <mxGeometry relative="1" as="geometry" />
        </mxCell>
        <mxCell id="wlD0yPwoiDmn4Mzgq7Xi-78" value="НЕТ" style="edgeStyle=orthogonalEdgeStyle;rounded=0;orthogonalLoop=1;jettySize=auto;html=1;exitX=1;exitY=0.5;exitDx=0;exitDy=0;entryX=1;entryY=0.5;entryDx=0;entryDy=0;fontSize=14;" edge="1" parent="1" source="wlD0yPwoiDmn4Mzgq7Xi-67" target="wlD0yPwoiDmn4Mzgq7Xi-71">
          <mxGeometry x="-0.8699" relative="1" as="geometry">
            <Array as="points">
              <mxPoint x="860" y="500" />
              <mxPoint x="860" y="680" />
            </Array>
            <mxPoint as="offset" />
          </mxGeometry>
        </mxCell>
        <mxCell id="wlD0yPwoiDmn4Mzgq7Xi-67" value="numbers[index] == maximum" style="rhombus;whiteSpace=wrap;html=1;" vertex="1" parent="1">
          <mxGeometry x="610" y="460" width="180" height="80" as="geometry" />
        </mxCell>
        <mxCell id="wlD0yPwoiDmn4Mzgq7Xi-76" style="edgeStyle=orthogonalEdgeStyle;rounded=0;orthogonalLoop=1;jettySize=auto;html=1;exitX=0.5;exitY=1;exitDx=0;exitDy=0;entryX=1;entryY=0.5;entryDx=0;entryDy=0;fontSize=14;" edge="1" parent="1" source="wlD0yPwoiDmn4Mzgq7Xi-69" target="wlD0yPwoiDmn4Mzgq7Xi-71">
          <mxGeometry relative="1" as="geometry" />
        </mxCell>
        <mxCell id="wlD0yPwoiDmn4Mzgq7Xi-69" value="count_maximal = count_maximal + 1" style="rounded=0;whiteSpace=wrap;html=1;" vertex="1" parent="1">
          <mxGeometry x="590" y="580" width="220" height="60" as="geometry" />
        </mxCell>
        <mxCell id="wlD0yPwoiDmn4Mzgq7Xi-79" style="edgeStyle=orthogonalEdgeStyle;rounded=0;orthogonalLoop=1;jettySize=auto;html=1;exitX=0;exitY=0.5;exitDx=0;exitDy=0;entryX=0;entryY=0.5;entryDx=0;entryDy=0;fontSize=14;" edge="1" parent="1" source="wlD0yPwoiDmn4Mzgq7Xi-71" target="wlD0yPwoiDmn4Mzgq7Xi-57">
          <mxGeometry relative="1" as="geometry">
            <Array as="points">
              <mxPoint x="420" y="680" />
              <mxPoint x="260" y="680" />
              <mxPoint x="260" y="270" />
            </Array>
          </mxGeometry>
        </mxCell>
        <mxCell id="wlD0yPwoiDmn4Mzgq7Xi-71" value="index = index + 1" style="rounded=0;whiteSpace=wrap;html=1;" vertex="1" parent="1">
          <mxGeometry x="420" y="651" width="120" height="60" as="geometry" />
        </mxCell>
        <mxCell id="wlD0yPwoiDmn4Mzgq7Xi-72" value="numbers = [1, 8, 3, 8, 2, 6, 8, 8]&lt;br&gt;index = 0&lt;br&gt;maximum = numbers[index]&lt;br&gt;count_maximal = 0&lt;br&gt;&lt;br&gt;while index &amp;lt; numbers.length do&lt;br&gt;	&lt;span style=&quot;white-space: pre&quot;&gt;	&lt;/span&gt;if numbers[index] &amp;gt; maximum then&amp;nbsp;&lt;br&gt;		&lt;span style=&quot;white-space: pre&quot;&gt;	&lt;/span&gt;&lt;span style=&quot;white-space: pre&quot;&gt;	&lt;/span&gt;maximum = numbers[index] &lt;br&gt;&lt;span style=&quot;white-space: pre&quot;&gt;	&lt;/span&gt;&lt;span style=&quot;white-space: pre&quot;&gt;	&lt;/span&gt;count_maximal = 1&lt;br&gt;	&lt;span style=&quot;white-space: pre&quot;&gt;	&lt;/span&gt;else&lt;br&gt;		&lt;span style=&quot;white-space: pre&quot;&gt;	&lt;span style=&quot;white-space: pre&quot;&gt;	&lt;/span&gt;&lt;/span&gt;if numbers[index] == maximum then&amp;nbsp;&lt;br&gt;			&lt;span style=&quot;white-space: pre&quot;&gt;	&lt;/span&gt;&lt;span style=&quot;white-space: pre&quot;&gt;	&lt;span style=&quot;white-space: pre&quot;&gt;	&lt;/span&gt;&lt;/span&gt;count_maximal = count_maximal + 1&lt;br&gt;	&lt;span style=&quot;white-space: pre&quot;&gt;	&lt;/span&gt;index = index + 1&lt;br&gt;&lt;br&gt;print(count_maximal)" style="text;whiteSpace=wrap;html=1;" vertex="1" parent="1">
          <mxGeometry x="20" y="70" width="320" height="210" as="geometry" />
        </mxCell>
        <mxCell id="wlD0yPwoiDmn4Mzgq7Xi-74" value="Псевдокод" style="text;html=1;resizable=0;autosize=1;align=center;verticalAlign=middle;points=[];fillColor=none;strokeColor=none;rounded=0;fontStyle=1;fontSize=14;" vertex="1" parent="1">
          <mxGeometry x="20" y="50" width="90" height="20" as="geometry" />
        </mxCell>
        <mxCell id="wlD0yPwoiDmn4Mzgq7Xi-83" style="edgeStyle=orthogonalEdgeStyle;rounded=0;orthogonalLoop=1;jettySize=auto;html=1;exitX=0.5;exitY=1;exitDx=0;exitDy=0;entryX=0.5;entryY=0;entryDx=0;entryDy=0;fontSize=14;" edge="1" parent="1" source="wlD0yPwoiDmn4Mzgq7Xi-75" target="wlD0yPwoiDmn4Mzgq7Xi-82">
          <mxGeometry relative="1" as="geometry" />
        </mxCell>
        <mxCell id="wlD0yPwoiDmn4Mzgq7Xi-75" value="print(count_maximal)" style="rounded=0;whiteSpace=wrap;html=1;fontSize=14;" vertex="1" parent="1">
          <mxGeometry x="395" y="758" width="170" height="60" as="geometry" />
        </mxCell>
        <mxCell id="wlD0yPwoiDmn4Mzgq7Xi-82" value="КОНЕЦ" style="rounded=1;whiteSpace=wrap;html=1;fontSize=14;" vertex="1" parent="1">
          <mxGeometry x="420" y="850" width="120" height="60" as="geometry" />
        </mxCell>
      </root>
    </mxGraphModel>
  </diagram>
</mxfile>
